<svg width="24" height="24" viewBox="0 0 24 24" fill="none" xmlns="http://www.w3.org/2000/svg">
<path d="M0 12C0 8.27247 0 6.4087 0.608964 4.93853C1.42092 2.97831 2.97831 1.42092 4.93853 0.608964C6.4087 0 8.27247 0 12 0C15.7275 0 17.5913 0 19.0615 0.608964C21.0217 1.42092 22.5791 2.97831 23.391 4.93853C24 6.4087 24 8.27247 24 12C24 15.7275 24 17.5913 23.391 19.0615C22.5791 21.0217 21.0217 22.5791 19.0615 23.391C17.5913 24 15.7275 24 12 24C8.27247 24 6.4087 24 4.93853 23.391C2.97831 22.5791 1.42092 21.0217 0.608964 19.0615C0 17.5913 0 15.7275 0 12Z" fill="#E5ECF6"/>
<path d="M12.0002 9.50001C11.5057 9.50001 11.0224 9.64663 10.6112 9.92133C10.2001 10.196 9.87968 10.5865 9.69046 11.0433C9.50124 11.5001 9.45173 12.0028 9.54819 12.4877C9.64466 12.9727 9.88276 13.4181 10.2324 13.7678C10.582 14.1174 11.0275 14.3555 11.5124 14.452C11.9974 14.5484 12.5 14.4989 12.9569 14.3097C13.4137 14.1205 13.8041 13.8001 14.0788 13.3889C14.3535 12.9778 14.5002 12.4945 14.5002 12C14.5002 11.337 14.2368 10.7011 13.7679 10.2322C13.2991 9.7634 12.6632 9.50001 12.0002 9.50001ZM12.0002 13.5C11.7035 13.5 11.4135 13.412 11.1668 13.2472C10.9201 13.0824 10.7279 12.8481 10.6143 12.574C10.5008 12.2999 10.4711 11.9983 10.529 11.7074C10.5869 11.4164 10.7297 11.1491 10.9395 10.9393C11.1493 10.7296 11.4165 10.5867 11.7075 10.5288C11.9985 10.471 12.3001 10.5007 12.5742 10.6142C12.8483 10.7277 13.0825 10.92 13.2474 11.1667C13.4122 11.4133 13.5002 11.7033 13.5002 12C13.5002 12.3978 13.3421 12.7794 13.0608 13.0607C12.7795 13.342 12.398 13.5 12.0002 13.5ZM16.607 13.9463C16.3922 14.4541 16.0949 14.9229 15.727 15.3338C15.638 15.4301 15.5146 15.4876 15.3835 15.4938C15.2524 15.5 15.1241 15.4545 15.0264 15.3669C14.9286 15.2794 14.8691 15.157 14.8608 15.026C14.8525 14.895 14.8961 14.766 14.982 14.6669C15.6386 13.9338 16.0016 12.9844 16.0016 12.0003C16.0016 11.0163 15.6386 10.0668 14.982 9.33376C14.937 9.28504 14.9021 9.22786 14.8794 9.16554C14.8567 9.10322 14.8467 9.037 14.8498 8.97074C14.8529 8.90449 14.8692 8.83952 14.8977 8.77962C14.9262 8.71972 14.9663 8.66609 15.0157 8.62185C15.0652 8.57761 15.1229 8.54365 15.1856 8.52194C15.2483 8.50023 15.3146 8.49121 15.3808 8.4954C15.447 8.49959 15.5117 8.51691 15.5712 8.54635C15.6306 8.57579 15.6836 8.61676 15.727 8.66688C16.3584 9.37334 16.7762 10.2445 16.932 11.1791C17.0878 12.1136 16.9751 13.0732 16.607 13.9463ZM8.31266 10.4431C8.01764 11.1415 7.92716 11.9093 8.05176 12.6571C8.17636 13.4049 8.5109 14.1019 9.01641 14.6669C9.10237 14.766 9.1459 14.895 9.1376 15.026C9.12931 15.157 9.06986 15.2794 8.97208 15.3669C8.8743 15.4545 8.74603 15.5 8.61495 15.4938C8.48386 15.4876 8.36047 15.4301 8.27141 15.3338C7.45052 14.4175 6.9966 13.2305 6.9966 12.0003C6.9966 10.7701 7.45052 9.58316 8.27141 8.66688C8.35984 8.56784 8.48399 8.50799 8.61656 8.50048C8.74912 8.49298 8.87924 8.53845 8.97828 8.62688C9.07732 8.71532 9.13718 8.83947 9.14468 8.97204C9.15218 9.1046 9.10671 9.23472 9.01828 9.33376C8.72328 9.66194 8.48483 10.0368 8.31266 10.4431ZM19.5002 12C19.5032 13.9636 18.7333 15.8495 17.357 17.25C17.3115 17.2987 17.2567 17.3378 17.1958 17.365C17.135 17.3922 17.0693 17.4069 17.0026 17.4083C16.936 17.4098 16.8697 17.3979 16.8078 17.3733C16.7458 17.3488 16.6894 17.3121 16.6418 17.2654C16.5942 17.2188 16.5564 17.163 16.5307 17.1016C16.5049 17.0401 16.4917 16.9741 16.4919 16.9074C16.492 16.8407 16.5055 16.7748 16.5315 16.7134C16.5575 16.652 16.5955 16.5965 16.6433 16.55C17.835 15.3359 18.5026 13.7025 18.5026 12.0013C18.5026 10.3 17.835 8.66666 16.6433 7.45251C16.5501 7.35786 16.4984 7.23008 16.4994 7.09728C16.5005 6.96448 16.5543 6.83754 16.6489 6.74438C16.7436 6.65123 16.8713 6.59948 17.0041 6.60054C17.1369 6.60159 17.2639 6.65536 17.357 6.75001C18.7333 8.15053 19.5032 10.0364 19.5002 12ZM7.35703 16.5488C7.40308 16.5956 7.43944 16.6511 7.46404 16.712C7.48865 16.7729 7.50101 16.8381 7.50043 16.9038C7.49985 16.9695 7.48634 17.0344 7.46066 17.0949C7.43498 17.1554 7.39765 17.2102 7.35078 17.2563C7.30392 17.3023 7.24844 17.3387 7.18752 17.3633C7.1266 17.3879 7.06143 17.4002 6.99574 17.3997C6.93004 17.3991 6.8651 17.3856 6.80462 17.3599C6.74415 17.3342 6.68933 17.2969 6.64328 17.25C5.26715 15.8491 4.49609 13.9638 4.49609 12C4.49609 10.0362 5.26715 8.15096 6.64328 6.75001C6.68881 6.70133 6.74362 6.66224 6.80448 6.63505C6.86534 6.60786 6.93102 6.59311 6.99766 6.59167C7.06431 6.59023 7.13056 6.60213 7.19254 6.62668C7.25451 6.65122 7.31096 6.6879 7.35855 6.73458C7.40614 6.78125 7.44391 6.83697 7.46966 6.89846C7.4954 6.95994 7.50859 7.02595 7.50845 7.09261C7.50831 7.15927 7.49484 7.22523 7.46883 7.2866C7.44283 7.34798 7.40482 7.40354 7.35703 7.45001C6.16532 8.66416 5.49768 10.2975 5.49768 11.9988C5.49768 13.7 6.16532 15.3334 7.35703 16.5475V16.5488Z" fill="#1C1C1C"/>
</svg>
